<svg width="19" height="19" viewBox="0 0 19 19" fill="none" xmlns="http://www.w3.org/2000/svg">
<path d="M4.16298 15.9039H4.2377L7.69941 15.5884C8.07862 15.5506 8.43329 15.3836 8.70389 15.1152L16.1752 7.64388C16.4652 7.33753 16.6219 6.92872 16.611 6.50702C16.6001 6.08533 16.4225 5.68515 16.1171 5.39418L13.8425 3.11957C13.5456 2.84072 13.1566 2.68072 12.7495 2.67001C12.3423 2.65929 11.9454 2.79861 11.6343 3.06146L4.16298 10.5328C3.89465 10.8034 3.72757 11.1581 3.6898 11.5373L3.33283 14.999C3.32165 15.1206 3.33743 15.2431 3.37904 15.3579C3.42065 15.4727 3.48708 15.5769 3.57358 15.6631C3.65115 15.7401 3.74314 15.8009 3.84428 15.8422C3.94543 15.8836 4.05373 15.9045 4.16298 15.9039ZM12.6886 4.28178L14.9549 6.54809L13.2946 8.16688L11.0698 5.94208L12.6886 4.28178ZM5.30029 11.6784L9.97402 7.03788L12.2154 9.27928L7.56659 13.9281L5.07615 14.1605L5.30029 11.6784Z" fill="#A2A6B0"/>
</svg>
